<!--Clipping (((0, 0), (50000, 0), (50000, 20000), (0, 20000)),) -->
<!--Clipping (((15000.0, 10000.0), (14755.282581475769, 11545.084971874736), (14045.084971874736, 12938.926261462368), (12938.926261462368, 14045.084971874736), (11545.084971874736, 14755.282581475769), (10000.0, 15000.0), (8454.915028125264, 14755.282581475769), (7061.073738537635, 14045.084971874736), (5954.915028125263, 12938.926261462368), (5244.717418524233, 11545.084971874738), (5000.0, 10000.0), (5244.717418524231, 8454.915028125266), (5954.915028125261, 7061.073738537635), (7061.073738537633, 5954.915028125263), (8454.915028125262, 5244.717418524233), (9999.999999999998, 5000.0), (11545.084971874736, 5244.717418524232), (12938.926261462366, 5954.915028125261), (14045.084971874736, 7061.073738537633), (14755.282581475769, 8454.915028125262)),) -->
<svg width="297" height="210" viewPort="0 0 297 210" >
<!-- a -->
<circle cx="20" cy="20" r="5" stroke="black" stroke-width="1" fill="red" stroke-opacity="1" fill-opacity="1"  />
<!-- plate -->
<path d="M 0.000000 0.000000 L 60.000000 0.000000 L 60.000000 60.000000 L 0.000000 60.000000 z M 10.000000 10.000000 L 50.000000 10.000000 L 50.000000 30.000000 L 30.000000 30.000000 L 30.000000 50.000000 L 10.000000 50.000000 z " fill-rule="evenodd" stroke="black" stroke-width="1" fill="blue" stroke-opacity="1" fill-opacity="1" />
<!-- b -->
<circle cx="81" cy="20" r="5" stroke="black" stroke-width="1" fill="red" stroke-opacity="1" fill-opacity="1"  />
<!-- _hole1 -->
<!-- _pusher -->
<!-- pusher -->
<path d="M 172.000000 40.000000 L 122.000000 40.000000 L 122.000000 20.000000 L 172.000000 20.000000 z M 130.454000 25.244000 L 129.061000 25.954000 L 127.954000 27.061000 L 127.244000 28.454000 L 127.000000 30.000000 L 127.244000 31.545000 L 127.954000 32.938000 L 129.061000 34.045000 L 130.454000 34.755000 L 132.000000 35.000000 L 133.545000 34.755000 L 134.938000 34.045000 L 136.045000 32.938000 L 136.755000 31.545000 L 137.000000 30.000000 L 136.755000 28.454000 L 136.045000 27.061000 L 134.938000 25.954000 L 133.545000 25.244000 L 131.999000 25.000000 z " fill-rule="evenodd" stroke="black" stroke-width="1" fill="green" stroke-opacity="1" fill-opacity="1" />
<!-- plate2 -->
<path d="M 61.000000 0.000000 L 121.000000 0.000000 L 121.000000 60.000000 L 61.000000 60.000000 z M 71.000000 10.000000 L 111.000000 10.000000 L 111.000000 30.000000 L 91.000000 30.000000 L 91.000000 50.000000 L 71.000000 50.000000 z " fill-rule="evenodd" fill-opacity="1" stroke="black" stroke-width="1" stroke-opacity="1" fill="blue" />
</svg>
